<?xml version="1.0" encoding="utf-8"?>
<!-- Generator: Adobe Illustrator 25.2.1, SVG Export Plug-In . SVG Version: 6.00 Build 0)  -->
<svg version="1.1" id="Layer_1" xmlns="http://www.w3.org/2000/svg" xmlns:xlink="http://www.w3.org/1999/xlink" x="0px" y="0px"
	 viewBox="0 0 432.48 251.95" style="enable-background:new 0 0 432.48 251.95;" xml:space="preserve">
<g>
	<path d="M82.39,205.6h-7.72l-0.64-0.64v-18.02l-0.64-0.64H56l-0.64,0.64v18.02l-0.64,0.64h-7.72l-0.64-0.64V161.2l0.64-0.64h7.72
		l0.64,0.64v16.73l0.64,0.64h17.38l0.64-0.64V161.2l0.64-0.64h7.72l0.64,0.64v43.77L82.39,205.6z"/>
	<path d="M126.03,205.6h-5.79l-0.64-0.64l-3.22-8.37l-1.29-0.64H98.99l-1.29,0.64l-3.22,8.37l-0.64,0.64h-5.79l-0.64-0.64v-6.44
		l14.8-37.33l0.64-0.64h8.37l0.64,0.64l14.8,37.33v6.44L126.03,205.6z M107.36,172.14h-0.64l-5.79,15.45l0.64,0.64h10.94l0.64-0.64
		L107.36,172.14z"/>
	<path d="M158.72,186.94v0.64l8.37,10.94v6.44l-0.64,0.64h-3.86l-1.29-0.64l-12.87-16.73l-1.29-0.64h-6.44l-0.64,0.64v16.73
		l-0.64,0.64h-7.72l-0.64-0.64V161.2l0.64-0.64h21.24c9.01,0,15.45,4.5,15.45,13.52C168.37,181.15,163.87,185.65,158.72,186.94z
		 M152.93,168.27H140.7l-0.64,0.64v10.3l0.64,0.64h12.23c3.86,0,6.44-1.29,6.44-5.79C159.36,169.56,156.79,168.27,152.93,168.27z"/>
	<path d="M188.45,205.6H174.3l-0.64-0.64V161.2l0.64-0.64h14.16c16.09,0,21.88,8.37,21.88,22.53
		C210.34,197.24,204.55,205.6,188.45,205.6z M189.1,168.27h-5.79l-0.64,0.64v28.32l0.64,0.64h5.79c9.01,0,12.23-4.5,12.23-14.8
		S198.11,168.27,189.1,168.27z"/>
	<path d="M245.79,160.55l0.64,0.64l8.37,29.61h0.64l6.44-29.61l0.64-0.64h6.44l0.64,0.64v6.44l-9.65,37.33l-0.64,0.64h-8.37
		l-0.64-0.64l-8.37-30.89h-0.64l-8.37,30.89l-0.64,0.64h-8.37l-0.64-0.64l-9.65-37.33v-6.44l0.64-0.64h6.44l0.64,0.64l6.44,29.61
		h0.64l8.37-29.61l0.64-0.64H245.79z"/>
	<path d="M307.17,205.6h-5.79l-0.64-0.64l-3.22-8.37l-1.29-0.64h-16.09l-1.29,0.64l-3.22,8.37l-0.64,0.64h-5.79l-0.64-0.64v-6.44
		l14.8-37.33l0.64-0.64h8.37l0.64,0.64l14.8,37.33v6.44L307.17,205.6z M288.5,172.14h-0.64l-5.79,15.45l0.64,0.64h10.94l0.64-0.64
		L288.5,172.14z"/>
	<path d="M60.8,92.69c-12.87,0-18.67-6.44-18.67-14.81l0.64-0.64h7.72l0.64,0.64c0,4.51,2.57,7.08,10.3,7.08
		c5.79,0,9.01-1.93,9.01-5.79c0-4.51-2.57-5.79-11.59-7.08c-9.01-1.29-16.09-4.51-16.09-13.52c0-6.44,5.15-12.23,17.38-12.23
		c12.23,0,17.38,5.79,17.38,13.52l-0.64,0.64h-7.72l-0.64-0.64c0-3.86-1.93-5.79-9.01-5.79c-5.79,0-7.72,1.93-7.72,4.51
		c0,3.86,2.57,5.15,11.59,6.44c9.01,1.29,16.09,5.15,16.09,14.16C79.47,86.26,74.32,92.69,60.8,92.69z"/>
	<path d="M117.41,54.71h-12.87l-0.64,0.64V91.4l-0.64,0.64h-7.72l-0.64-0.64V55.36l-0.64-0.64H81.36l-0.64-0.64v-6.44l0.64-0.64
		h36.05l0.64,0.64v6.44L117.41,54.71z"/>
	<path d="M153.8,92.05h-5.79l-0.64-0.64l-3.22-8.37l-1.29-0.64h-16.09l-1.29,0.64l-3.22,8.37l-0.64,0.64h-5.79l-0.64-0.64v-6.44
		l14.81-37.33l0.64-0.64H139l0.64,0.64l14.81,37.33v6.44L153.8,92.05z M135.13,58.58h-0.64l-5.79,15.45l0.64,0.64h10.94l0.64-0.64
		L135.13,58.58z"/>
	<path d="M74.96,148.84H46.99l-0.64-0.64v-43.77l0.64-0.64h7.72l0.64,0.64v36.05l0.64,0.64h18.95l0.64,0.64v6.44L74.96,148.84z"/>
	<path d="M118.4,148.84h-5.79l-0.64-0.64l-3.22-8.37l-1.29-0.64H91.36l-1.29,0.64l-3.22,8.37l-0.64,0.64h-5.79l-0.64-0.64v-6.44
		l14.81-37.33l0.64-0.64h8.37l0.64,0.64l14.81,37.33v6.44L118.4,148.84z M99.73,115.36h-0.64l-5.79,15.45l0.64,0.64h10.94l0.64-0.64
		L99.73,115.36z"/>
	<path d="M146.05,148.84h-21.89l-0.64-0.64v-43.77l0.64-0.64h20.6c6.44,0,12.87,3.22,12.87,11.59c0,4.51-1.93,8.37-6.44,9.66v0.64
		c5.15,1.29,7.72,5.15,7.72,10.94C158.92,145.62,152.48,148.84,146.05,148.84z M143.47,111.5h-10.3l-0.64,0.64v9.01l0.64,0.64h10.3
		c3.86,0,5.15-2.57,5.15-5.15C148.62,113.43,147.33,111.5,143.47,111.5z M143.47,129.52h-10.3l-0.64,0.64v10.3l0.64,0.64h10.3
		c4.51,0,6.44-1.93,6.44-5.79C149.91,131.46,147.98,129.52,143.47,129.52z"/>
	<path d="M186.6,73.38v0.64l8.37,10.94v6.44l-0.64,0.64h-3.86l-1.29-0.64L176.3,74.67l-1.29-0.64h-6.44l-0.64,0.64V91.4l-0.64,0.64
		h-7.72l-0.64-0.64V47.63l0.64-0.64h21.24c9.01,0,15.45,4.51,15.45,13.52C196.26,67.59,191.75,72.09,186.6,73.38z M180.81,54.71
		h-12.23l-0.64,0.64v10.3l0.64,0.64h12.23c3.86,0,6.44-1.29,6.44-5.79C187.24,56,184.67,54.71,180.81,54.71z"/>
	<path d="M236.14,54.71h-12.87l-0.64,0.64V91.4l-0.64,0.64h-7.72l-0.64-0.64V55.36l-0.64-0.64h-12.87l-0.64-0.64v-6.44l0.64-0.64
		h36.05l0.64,0.64v6.44L236.14,54.71z"/>
	<path d="M277.5,74.67c0,11.59-6.44,18.02-18.02,18.02c-11.59,0-18.02-6.44-18.02-18.02V47.63l0.64-0.64h7.72l0.64,0.64v27.04
		c0,6.44,2.57,10.3,9.01,10.3c6.44,0,9.01-3.86,9.01-10.3V47.63l0.64-0.64h7.72l0.64,0.64V74.67z"/>
	<path d="M305.46,74.03h-12.23l-0.64,0.64V91.4l-0.64,0.64h-7.73l-0.64-0.64V47.63l0.64-0.64h21.24c9.01,0,15.45,4.51,15.45,13.52
		C320.91,69.52,314.48,74.03,305.46,74.03z M305.46,54.71h-12.23l-0.64,0.64v10.3l0.64,0.64h12.23c3.86,0,6.44-1.29,6.44-5.79
		C311.9,56,309.33,54.71,305.46,54.71z"/>
	<path d="M339.66,186.94v0.64l8.37,10.94v6.44l-0.64,0.64h-3.86l-1.29-0.64l-12.87-16.73l-1.29-0.64h-6.44l-0.64,0.64v16.73
		l-0.64,0.64h-7.72l-0.64-0.64v-43.77l0.64-0.64h21.24c9.01,0,15.45,4.5,15.45,13.52C349.31,181.15,344.81,185.65,339.66,186.94z
		 M333.87,168.27h-12.23l-0.64,0.64v10.3l0.64,0.64h12.23c3.86,0,6.44-1.29,6.44-5.79C340.3,169.56,337.73,168.27,333.87,168.27z"/>
	<path d="M385.49,205.6h-30.25l-0.64-0.64v-43.77l0.64-0.64h30.25l0.64,0.64v6.44l-0.64,0.64h-21.24l-0.64,0.64v9.01l0.64,0.64
		h19.95l0.64,0.64v6.44l-0.64,0.64h-19.95l-0.64,0.64v10.3l0.64,0.64h21.24l0.64,0.64v6.44L385.49,205.6z"/>
</g>
</svg>
