<?xml version="1.0" encoding="utf-8"?>
<!-- Generator: Adobe Illustrator 25.2.1, SVG Export Plug-In . SVG Version: 6.00 Build 0)  -->
<svg version="1.1" id="Layer_1" xmlns="http://www.w3.org/2000/svg" xmlns:xlink="http://www.w3.org/1999/xlink" x="0px" y="0px"
	 viewBox="0 0 415.1 252.59" style="enable-background:new 0 0 415.1 252.59;" xml:space="preserve">
<style type="text/css">
	.st0{fill:#FF3333;}
</style>
<g>
	<path class="st0" d="M70.16,204.96l-0.64,0.64h-8.37l-0.64-0.64l-14.16-37.33v-6.44l0.64-0.64h5.79l0.64,0.64l11.58,31.54h0.64
		l11.58-31.54l0.64-0.64h5.79l0.64,0.64v6.44L70.16,204.96z"/>
	<path class="st0" d="M119.59,205.6H89.34l-0.64-0.64V161.2l0.64-0.64h30.25l0.64,0.64v6.44l-0.64,0.64H98.35l-0.64,0.64v9.01
		l0.64,0.64h19.95l0.64,0.64v6.44l-0.64,0.64H98.35l-0.64,0.64v10.3l0.64,0.64h21.24l0.64,0.64v6.44L119.59,205.6z"/>
	<path class="st0" d="M126.85,160.55h9.01l1.29,0.64l17.38,29.61h0.64V161.2l0.64-0.64h7.72l0.64,0.64v43.77l-0.64,0.64h-9.01
		l-1.29-0.64l-17.38-29.61h-0.64v29.61l-0.64,0.64h-7.72l-0.64-0.64V161.2L126.85,160.55z"/>
	<path class="st0" d="M205.55,168.27h-12.87l-0.64,0.64v36.04l-0.64,0.64h-7.72l-0.64-0.64v-36.04l-0.64-0.64H169.5l-0.64-0.64
		v-6.44l0.64-0.64h36.04l0.64,0.64v6.44L205.55,168.27z"/>
	<path class="st0" d="M246.81,188.23c0,11.58-6.44,18.02-18.02,18.02s-18.02-6.44-18.02-18.02V161.2l0.64-0.64h7.72l0.64,0.64v27.03
		c0,6.44,2.58,10.3,9.01,10.3c6.44,0,9.01-3.86,9.01-10.3V161.2l0.64-0.64h7.72l0.64,0.64V188.23z"/>
	<path class="st0" d="M60.8,92.69c-12.87,0-18.67-6.44-18.67-14.81l0.64-0.64h7.72l0.64,0.64c0,4.51,2.57,7.08,10.3,7.08
		c5.79,0,9.01-1.93,9.01-5.79c0-4.51-2.57-5.79-11.59-7.08c-9.01-1.29-16.09-4.51-16.09-13.52c0-6.44,5.15-12.23,17.38-12.23
		c12.23,0,17.38,5.79,17.38,13.52l-0.64,0.64h-7.72l-0.64-0.64c0-3.86-1.93-5.79-9.01-5.79c-5.79,0-7.72,1.93-7.72,4.51
		c0,3.86,2.57,5.15,11.59,6.44c9.01,1.29,16.09,5.15,16.09,14.16C79.47,86.26,74.32,92.69,60.8,92.69z"/>
	<path class="st0" d="M117.41,54.71h-12.87l-0.64,0.64V91.4l-0.64,0.64h-7.72l-0.64-0.64V55.36l-0.64-0.64H81.36l-0.64-0.64v-6.44
		l0.64-0.64h36.05l0.64,0.64v6.44L117.41,54.71z"/>
	<path class="st0" d="M153.8,92.05h-5.79l-0.64-0.64l-3.22-8.37l-1.29-0.64h-16.09l-1.29,0.64l-3.22,8.37l-0.64,0.64h-5.79
		l-0.64-0.64v-6.44l14.8-37.33l0.64-0.64H139l0.64,0.64l14.81,37.33v6.44L153.8,92.05z M135.13,58.58h-0.64l-5.79,15.45l0.64,0.64
		h10.94l0.64-0.64L135.13,58.58z"/>
	<path class="st0" d="M74.96,148.84H46.99l-0.64-0.64v-43.77l0.64-0.64h7.72l0.64,0.64v36.05l0.64,0.64h18.95l0.64,0.64v6.44
		L74.96,148.84z"/>
	<path class="st0" d="M118.4,148.84h-5.79l-0.64-0.64l-3.22-8.37l-1.29-0.64H91.36l-1.29,0.64l-3.22,8.37l-0.64,0.64h-5.79
		l-0.64-0.64v-6.44l14.81-37.33l0.64-0.64h8.37l0.64,0.64l14.81,37.33v6.44L118.4,148.84z M99.73,115.36h-0.64l-5.79,15.45
		l0.64,0.64h10.94l0.64-0.64L99.73,115.36z"/>
	<path class="st0" d="M146.05,148.84h-21.89l-0.64-0.64v-43.77l0.64-0.64h20.6c6.44,0,12.87,3.22,12.87,11.59
		c0,4.51-1.93,8.37-6.44,9.66v0.64c5.15,1.29,7.72,5.15,7.72,10.94C158.92,145.62,152.48,148.84,146.05,148.84z M143.47,111.5h-10.3
		l-0.64,0.64v9.01l0.64,0.64h10.3c3.86,0,5.15-2.57,5.15-5.15C148.62,113.43,147.33,111.5,143.47,111.5z M143.47,129.52h-10.3
		l-0.64,0.64v10.3l0.64,0.64h10.3c4.51,0,6.44-1.93,6.44-5.79C149.91,131.46,147.98,129.52,143.47,129.52z"/>
	<path class="st0" d="M186.6,73.38v0.64l8.37,10.94v6.44l-0.64,0.64h-3.86l-1.29-0.64L176.3,74.67l-1.29-0.64h-6.44l-0.64,0.64V91.4
		l-0.64,0.64h-7.72l-0.64-0.64V47.63l0.64-0.64h21.24c9.01,0,15.45,4.51,15.45,13.52C196.26,67.59,191.75,72.09,186.6,73.38z
		 M180.81,54.71h-12.23l-0.64,0.64v10.3l0.64,0.64h12.23c3.86,0,6.44-1.29,6.44-5.79C187.24,56,184.67,54.71,180.81,54.71z"/>
	<path class="st0" d="M236.14,54.71h-12.87l-0.64,0.64V91.4l-0.64,0.64h-7.72l-0.64-0.64V55.36l-0.64-0.64h-12.87l-0.64-0.64v-6.44
		l0.64-0.64h36.05l0.64,0.64v6.44L236.14,54.71z"/>
	<path class="st0" d="M277.5,74.67c0,11.59-6.44,18.02-18.02,18.02c-11.59,0-18.02-6.44-18.02-18.02V47.63l0.64-0.64h7.72l0.64,0.64
		v27.04c0,6.44,2.57,10.3,9.01,10.3c6.44,0,9.01-3.86,9.01-10.3V47.63l0.64-0.64h7.72l0.64,0.64V74.67z"/>
	<path class="st0" d="M305.46,74.03h-12.23l-0.64,0.64V91.4l-0.64,0.64h-7.73l-0.64-0.64V47.63l0.64-0.64h21.24
		c9.01,0,15.45,4.51,15.45,13.52C320.91,69.52,314.48,74.03,305.46,74.03z M305.46,54.71h-12.23l-0.64,0.64v10.3l0.64,0.64h12.23
		c3.86,0,6.44-1.29,6.44-5.79C311.9,56,309.33,54.71,305.46,54.71z"/>
	<path class="st0" d="M280.56,186.94v0.64l8.37,10.94v6.44l-0.64,0.64h-3.86l-1.29-0.64l-12.87-16.73l-1.29-0.64h-6.44l-0.64,0.64
		v16.73l-0.64,0.64h-7.72l-0.64-0.64V161.2l0.64-0.64h21.24c9.01,0,15.45,4.5,15.45,13.52
		C290.21,181.15,285.71,185.65,280.56,186.94z M274.77,168.27h-12.23l-0.64,0.64v10.3l0.64,0.64h12.23c3.86,0,6.44-1.29,6.44-5.79
		C281.2,169.56,278.63,168.27,274.77,168.27z"/>
	<path class="st0" d="M326.38,205.6h-30.25l-0.64-0.64V161.2l0.64-0.64h30.25l0.64,0.64v6.44l-0.64,0.64h-21.24l-0.64,0.64v9.01
		l0.64,0.64h19.95l0.64,0.64v6.44l-0.64,0.64h-19.95l-0.64,0.64v10.3l0.64,0.64h21.24l0.64,0.64v6.44L326.38,205.6z"/>
	<path class="st0" d="M350.09,206.25c-12.87,0-18.67-6.44-18.67-14.8l0.64-0.64h7.72l0.64,0.64c0,4.5,2.57,7.08,10.3,7.08
		c5.79,0,9.01-1.93,9.01-5.79c0-4.51-2.57-5.79-11.58-7.08s-16.09-4.5-16.09-13.52c0-6.44,5.15-12.23,17.38-12.23
		s17.38,5.79,17.38,13.52l-0.64,0.64h-7.72l-0.64-0.64c0-3.86-1.93-5.79-9.01-5.79c-5.79,0-7.72,1.93-7.72,4.51
		c0,3.86,2.57,5.15,11.58,6.44c9.01,1.29,16.09,5.15,16.09,14.16C368.76,199.81,363.61,206.25,350.09,206.25z"/>
</g>
</svg>
