<svg width="616" height="202" viewBox="0 0 616 202" fill="none" xmlns="http://www.w3.org/2000/svg">
<path d="M46.6 41C46.6 49.8 40.2 57.8 23.4 57.8C7.4 57.8 0.2 49.8 0.2 39.4L1 38.6H10.6L11.4 39.4C11.4 45 14.6 48.2 24.2 48.2C31.4 48.2 35.4 45.8 35.4 41C35.4 35.4 32.2 33.8 21 32.2C9.8 30.6 1 26.6 1 15.4C1 7.4 7.4 0.199997 22.6 0.199997C37.8 0.199997 44.2 7.4 44.2 17L43.4 17.8H33.8L33 17C33 12.2 30.6 9.8 21.8 9.8C14.6 9.8 12.2 12.2 12.2 15.4C12.2 20.2 15.4 21.8 26.6 23.4C37.8 25 46.6 29.8 46.6 41ZM95.4313 9.8L94.6313 10.6H78.6313L77.8313 11.4V56.2L77.0313 57H67.4313L66.6313 56.2V11.4L65.8313 10.6H49.8313L49.0313 9.8V1.8L49.8313 0.999996H94.6313L95.4313 1.8V9.8ZM141.075 56.2L140.275 57H133.075L132.275 56.2L128.275 45.8L126.675 45H106.675L105.075 45.8L101.075 56.2L100.275 57H93.075L92.275 56.2V48.2L110.675 1.8L111.475 0.999996H121.875L122.675 1.8L141.075 48.2V56.2ZM124.275 34.6L117.075 15.4H116.275L109.075 34.6L109.875 35.4H123.475L124.275 34.6ZM193.906 17.8C193.906 26.6 188.306 32.2 181.906 33.8V34.6L192.306 48.2V56.2L191.506 57H186.706L185.106 56.2L169.106 35.4L167.506 34.6H159.506L158.706 35.4V56.2L157.906 57H148.306L147.506 56.2V1.8L148.306 0.999996H174.706C185.906 0.999996 193.906 6.6 193.906 17.8ZM182.706 17.8C182.706 12.2 179.506 10.6 174.706 10.6H159.506L158.706 11.4V24.2L159.506 25H174.706C179.506 25 182.706 23.4 182.706 17.8ZM242.741 9.8L241.941 10.6H225.941L225.141 11.4V56.2L224.341 57H214.741L213.941 56.2V11.4L213.141 10.6H197.141L196.341 9.8V1.8L197.141 0.999996H241.941L242.741 1.8V9.8ZM293.95 1.8V35.4C293.95 49.8 285.95 57.8 271.55 57.8C257.15 57.8 249.15 49.8 249.15 35.4V1.8L249.95 0.999996H259.55L260.35 1.8V35.4C260.35 43.4 263.55 48.2 271.55 48.2C279.55 48.2 282.75 43.4 282.75 35.4V1.8L283.55 0.999996H293.15L293.95 1.8ZM351.528 17.8C351.528 29 343.528 34.6 332.328 34.6H317.128L316.328 35.4V56.2L315.528 57H305.928L305.128 56.2V1.8L305.928 0.999996H332.328C343.528 0.999996 351.528 6.6 351.528 17.8ZM340.328 17.8C340.328 12.2 337.128 10.6 332.328 10.6H317.128L316.328 11.4V24.2L317.128 25H332.328C337.128 25 340.328 23.4 340.328 17.8ZM41 128.2L40.2 129H4.2L3.4 128.2V73.8L4.2 73H13.8L14.6 73.8V118.6L15.4 119.4H40.2L41 120.2V128.2ZM92.1281 128.2L91.3281 129H84.1281L83.3281 128.2L79.3281 117.8L77.7281 117H57.7281L56.1281 117.8L52.1281 128.2L51.3281 129H44.1281L43.3281 128.2V120.2L61.7281 73.8L62.5281 73H72.9281L73.7281 73.8L92.1281 120.2V128.2ZM75.3281 106.6L68.1281 87.4H67.3281L60.1281 106.6L60.9281 107.4H74.5281L75.3281 106.6ZM142.559 113.8C142.559 125 134.559 129 126.559 129H99.3594L98.5594 128.2V73.8L99.3594 73H124.959C132.959 73 140.959 77 140.959 87.4C140.959 93 138.559 97.8 132.959 99.4V100.2C139.359 101.8 142.559 106.6 142.559 113.8ZM129.759 89C129.759 85 128.159 82.6 123.359 82.6H110.559L109.759 83.4V94.6L110.559 95.4H123.359C128.159 95.4 129.759 92.2 129.759 89ZM131.359 112.2C131.359 107.4 128.959 105 123.359 105H110.559L109.759 105.8V118.6L110.559 119.4H123.359C128.959 119.4 131.359 117 131.359 112.2ZM27.4 192.2C33.8 192.2 37.8 189.8 39.4 184.2L40.2 183.4H49.8L50.6 184.2C49 195.4 40.2 201.8 27.4 201.8C9.8 201.8 0.2 189.8 0.2 173C0.2 156.2 9.8 144.2 27.4 144.2C40.2 144.2 49 150.6 50.6 161L49.8 161.8H40.2L39.4 161C37.8 156.2 33.8 153.8 27.4 153.8C16.2 153.8 11.4 161.8 11.4 173C11.4 184.2 16.2 192.2 27.4 192.2ZM98.5969 173C98.5969 161.8 92.9969 153.8 82.5969 153.8C72.1969 153.8 66.5969 161.8 66.5969 173C66.5969 184.2 72.1969 192.2 82.5969 192.2C92.9969 192.2 98.5969 184.2 98.5969 173ZM109.797 173C109.797 189.8 99.3969 201.8 82.5969 201.8C65.7969 201.8 55.3969 189.8 55.3969 173C55.3969 156.2 65.7969 144.2 82.5969 144.2C99.3969 144.2 109.797 156.2 109.797 173ZM117.778 145.8L118.578 145H129.778L131.378 145.8L152.978 182.6H153.778V145.8L154.578 145H164.178L164.978 145.8V200.2L164.178 201H152.978L151.378 200.2L129.778 163.4H128.978V200.2L128.178 201H118.578L117.778 200.2V145.8ZM219.378 185C219.378 193.8 212.978 201.8 196.178 201.8C180.178 201.8 172.978 193.8 172.978 183.4L173.778 182.6H183.378L184.178 183.4C184.178 189 187.378 192.2 196.978 192.2C204.178 192.2 208.178 189.8 208.178 185C208.178 179.4 204.978 177.8 193.778 176.2C182.578 174.6 173.778 170.6 173.778 159.4C173.778 151.4 180.178 144.2 195.378 144.2C210.578 144.2 216.978 151.4 216.978 161L216.178 161.8H206.578L205.778 161C205.778 156.2 203.378 153.8 194.578 153.8C187.378 153.8 184.978 156.2 184.978 159.4C184.978 164.2 188.178 165.8 199.378 167.4C210.578 169 219.378 173.8 219.378 185ZM268.209 153.8L267.409 154.6H251.409L250.609 155.4V200.2L249.809 201H240.209L239.409 200.2V155.4L238.609 154.6H222.609L221.809 153.8V145.8L222.609 145H267.409L268.209 145.8V153.8ZM321.019 161.8C321.019 170.6 315.419 176.2 309.019 177.8V178.6L319.419 192.2V200.2L318.619 201H313.819L312.219 200.2L296.219 179.4L294.619 178.6H286.619L285.819 179.4V200.2L285.019 201H275.419L274.619 200.2V145.8L275.419 145H301.819C313.019 145 321.019 150.6 321.019 161.8ZM309.819 161.8C309.819 156.2 306.619 154.6 301.819 154.6H286.619L285.819 155.4V168.2L286.619 169H301.819C306.619 169 309.819 167.4 309.819 161.8ZM373.834 145.8V179.4C373.834 193.8 365.834 201.8 351.434 201.8C337.034 201.8 329.034 193.8 329.034 179.4V145.8L329.834 145H339.434L340.234 145.8V179.4C340.234 187.4 343.434 192.2 351.434 192.2C359.434 192.2 362.634 187.4 362.634 179.4V145.8L363.434 145H373.034L373.834 145.8ZM409.012 192.2C415.412 192.2 419.412 189.8 421.012 184.2L421.812 183.4H431.412L432.212 184.2C430.612 195.4 421.812 201.8 409.012 201.8C391.412 201.8 381.812 189.8 381.812 173C381.812 156.2 391.412 144.2 409.012 144.2C421.812 144.2 430.612 150.6 432.212 161L431.412 161.8H421.812L421.012 161C419.412 156.2 415.412 153.8 409.012 153.8C397.812 153.8 393.012 161.8 393.012 173C393.012 184.2 397.812 192.2 409.012 192.2ZM480.247 153.8L479.447 154.6H463.447L462.647 155.4V200.2L461.847 201H452.247L451.447 200.2V155.4L450.647 154.6H434.647L433.847 153.8V145.8L434.647 145H479.447L480.247 145.8V153.8ZM497.856 200.2L497.056 201H487.456L486.656 200.2V145.8L487.456 145H497.056L497.856 145.8V200.2ZM549.041 173C549.041 161.8 543.441 153.8 533.041 153.8C522.641 153.8 517.041 161.8 517.041 173C517.041 184.2 522.641 192.2 533.041 192.2C543.441 192.2 549.041 184.2 549.041 173ZM560.241 173C560.241 189.8 549.841 201.8 533.041 201.8C516.241 201.8 505.841 189.8 505.841 173C505.841 156.2 516.241 144.2 533.041 144.2C549.841 144.2 560.241 156.2 560.241 173ZM568.222 145.8L569.022 145H580.222L581.822 145.8L603.422 182.6H604.222V145.8L605.022 145H614.622L615.422 145.8V200.2L614.622 201H603.422L601.822 200.2L580.222 163.4H579.422V200.2L578.622 201H569.022L568.222 200.2V145.8Z" fill="#FF3333"/>
</svg>
