<?xml version="1.0" encoding="utf-8"?>
<!-- Generator: Adobe Illustrator 25.2.1, SVG Export Plug-In . SVG Version: 6.00 Build 0)  -->
<svg version="1.1" id="Layer_1" xmlns="http://www.w3.org/2000/svg" xmlns:xlink="http://www.w3.org/1999/xlink" x="0px" y="0px"
	 viewBox="0 0 510.6 252.59" style="enable-background:new 0 0 510.6 252.59;" xml:space="preserve">
<g>
	<g>
		<path d="M61.15,205.6H46.99l-0.64-0.64V161.2l0.64-0.64h14.16c16.09,0,21.88,8.37,21.88,22.53
			C83.03,197.24,77.24,205.6,61.15,205.6z M61.79,168.27H56l-0.64,0.64v28.32l0.64,0.64h5.79c9.01,0,12.23-4.5,12.23-14.8
			S70.8,168.27,61.79,168.27z"/>
		<path d="M122.32,205.6h-5.79l-0.64-0.64l-3.22-8.37l-1.29-0.64H95.29L94,196.59l-3.22,8.37l-0.64,0.64h-5.79l-0.64-0.64v-6.44
			l14.8-37.33l0.64-0.64h8.37l0.64,0.64l14.8,37.33v6.44L122.32,205.6z M103.66,172.14h-0.64l-5.79,15.45l0.64,0.64h10.94l0.64-0.64
			L103.66,172.14z"/>
		<path d="M154.81,168.27h-12.87l-0.64,0.64v36.04l-0.64,0.64h-7.72l-0.64-0.64v-36.04l-0.64-0.64h-12.87l-0.64-0.64v-6.44
			l0.64-0.64h36.04l0.64,0.64v6.44L154.81,168.27z"/>
		<path d="M189.22,205.6h-5.79l-0.64-0.64l-3.22-8.37l-1.29-0.64h-16.09l-1.29,0.64l-3.22,8.37l-0.64,0.64h-5.79l-0.64-0.64v-6.44
			l14.8-37.33l0.64-0.64h8.37l0.64,0.64l14.8,37.33v6.44L189.22,205.6z M170.56,172.14h-0.64l-5.79,15.45l0.64,0.64h10.94l0.64-0.64
			L170.56,172.14z"/>
		<path d="M225.56,206.25c-12.87,0-18.67-6.44-18.67-14.8l0.64-0.64h7.72l0.64,0.64c0,4.5,2.57,7.08,10.3,7.08
			c5.79,0,9.01-1.93,9.01-5.79c0-4.51-2.57-5.79-11.58-7.08s-16.09-4.5-16.09-13.52c0-6.44,5.15-12.23,17.38-12.23
			s17.38,5.79,17.38,13.52l-0.64,0.64h-7.72l-0.64-0.64c0-3.86-1.93-5.79-9.01-5.79c-5.79,0-7.72,1.93-7.72,4.51
			c0,3.86,2.57,5.15,11.58,6.44c9.01,1.29,16.09,5.15,16.09,14.16C244.22,199.81,239.07,206.25,225.56,206.25z"/>
		<path d="M278.11,192.09l0.64-0.64h7.72l0.64,0.64c-1.29,9.01-8.37,14.16-18.67,14.16c-14.16,0-21.88-9.65-21.88-23.17
			c0-13.52,7.72-23.17,21.88-23.17c10.3,0,17.38,5.15,18.67,13.52l-0.64,0.64h-7.72l-0.64-0.64c-1.29-3.86-4.5-5.79-9.65-5.79
			c-9.01,0-12.87,6.44-12.87,15.45s3.86,15.45,12.87,15.45C273.6,198.52,276.82,196.59,278.11,192.09z"/>
		<path d="M300.35,205.6h-7.72l-0.64-0.64V161.2l0.64-0.64h7.72l0.64,0.64v43.77L300.35,205.6z"/>
		<path d="M337.96,205.6h-30.25l-0.64-0.64V161.2l0.64-0.64h30.25l0.64,0.64v6.44l-0.64,0.64h-21.24l-0.64,0.64v9.01l0.64,0.64
			h19.95l0.64,0.64v6.44l-0.64,0.64h-19.95l-0.64,0.64v10.3l0.64,0.64h21.24l0.64,0.64v6.44L337.96,205.6z"/>
		<path d="M345.33,160.55h9.01l1.29,0.64L373,190.8h0.64V161.2l0.64-0.64h7.72l0.64,0.64v43.77l-0.64,0.64H373l-1.29-0.64
			l-17.38-29.61h-0.64v29.61l-0.64,0.64h-7.72l-0.64-0.64V161.2L345.33,160.55z"/>
		<path d="M418.94,192.09l0.64-0.64h7.72l0.64,0.64c-1.29,9.01-8.37,14.16-18.67,14.16c-14.16,0-21.88-9.65-21.88-23.17
			c0-13.52,7.72-23.17,21.88-23.17c10.3,0,17.38,5.15,18.67,13.52l-0.64,0.64h-7.72l-0.64-0.64c-1.29-3.86-4.5-5.79-9.65-5.79
			c-9.01,0-12.87,6.44-12.87,15.45s3.86,15.45,12.87,15.45C414.43,198.52,417.65,196.59,418.94,192.09z"/>
		<path d="M463.61,205.6h-30.25l-0.64-0.64V161.2l0.64-0.64h30.25l0.64,0.64v6.44l-0.64,0.64h-21.24l-0.64,0.64v9.01l0.64,0.64
			h19.95l0.64,0.64v6.44l-0.64,0.64h-19.95l-0.64,0.64v10.3l0.64,0.64h21.24l0.64,0.64v6.44L463.61,205.6z"/>
	</g>
	<path d="M60.8,92.69c-12.87,0-18.67-6.44-18.67-14.81l0.64-0.64h7.72l0.64,0.64c0,4.51,2.57,7.08,10.3,7.08
		c5.79,0,9.01-1.93,9.01-5.79c0-4.51-2.57-5.79-11.59-7.08c-9.01-1.29-16.09-4.51-16.09-13.52c0-6.44,5.15-12.23,17.38-12.23
		c12.23,0,17.38,5.79,17.38,13.52l-0.64,0.64h-7.72l-0.64-0.64c0-3.86-1.93-5.79-9.01-5.79c-5.79,0-7.72,1.93-7.72,4.51
		c0,3.86,2.57,5.15,11.59,6.44c9.01,1.29,16.09,5.15,16.09,14.16C79.47,86.26,74.32,92.69,60.8,92.69z"/>
	<path d="M117.41,54.71h-12.87l-0.64,0.64V91.4l-0.64,0.64h-7.72l-0.64-0.64V55.36l-0.64-0.64H81.36l-0.64-0.64v-6.44l0.64-0.64
		h36.05l0.64,0.64v6.44L117.41,54.71z"/>
	<path d="M153.8,92.05h-5.79l-0.64-0.64l-3.22-8.37l-1.29-0.64h-16.09l-1.29,0.64l-3.22,8.37l-0.64,0.64h-5.79l-0.64-0.64v-6.44
		l14.8-37.33l0.64-0.64H139l0.64,0.64l14.81,37.33v6.44L153.8,92.05z M135.13,58.58h-0.64l-5.79,15.45l0.64,0.64h10.94l0.64-0.64
		L135.13,58.58z"/>
	<path d="M74.96,148.84H46.99l-0.64-0.64v-43.77l0.64-0.64h7.72l0.64,0.64v36.05l0.64,0.64h18.95l0.64,0.64v6.44L74.96,148.84z"/>
	<path d="M118.4,148.84h-5.79l-0.64-0.64l-3.22-8.37l-1.29-0.64H91.36l-1.29,0.64l-3.22,8.37l-0.64,0.64h-5.79l-0.64-0.64v-6.44
		l14.81-37.33l0.64-0.64h8.37l0.64,0.64l14.81,37.33v6.44L118.4,148.84z M99.73,115.36h-0.64l-5.79,15.45l0.64,0.64h10.94l0.64-0.64
		L99.73,115.36z"/>
	<path d="M146.05,148.84h-21.89l-0.64-0.64v-43.77l0.64-0.64h20.6c6.44,0,12.87,3.22,12.87,11.59c0,4.51-1.93,8.37-6.44,9.66v0.64
		c5.15,1.29,7.72,5.15,7.72,10.94C158.92,145.62,152.48,148.84,146.05,148.84z M143.47,111.5h-10.3l-0.64,0.64v9.01l0.64,0.64h10.3
		c3.86,0,5.15-2.57,5.15-5.15C148.62,113.43,147.33,111.5,143.47,111.5z M143.47,129.52h-10.3l-0.64,0.64v10.3l0.64,0.64h10.3
		c4.51,0,6.44-1.93,6.44-5.79C149.91,131.46,147.98,129.52,143.47,129.52z"/>
	<path d="M186.6,73.38v0.64l8.37,10.94v6.44l-0.64,0.64h-3.86l-1.29-0.64L176.3,74.67l-1.29-0.64h-6.44l-0.64,0.64V91.4l-0.64,0.64
		h-7.72l-0.64-0.64V47.63l0.64-0.64h21.24c9.01,0,15.45,4.51,15.45,13.52C196.26,67.59,191.75,72.09,186.6,73.38z M180.81,54.71
		h-12.23l-0.64,0.64v10.3l0.64,0.64h12.23c3.86,0,6.44-1.29,6.44-5.79C187.24,56,184.67,54.71,180.81,54.71z"/>
	<path d="M236.14,54.71h-12.87l-0.64,0.64V91.4l-0.64,0.64h-7.72l-0.64-0.64V55.36l-0.64-0.64h-12.87l-0.64-0.64v-6.44l0.64-0.64
		h36.05l0.64,0.64v6.44L236.14,54.71z"/>
	<path d="M277.5,74.67c0,11.59-6.44,18.02-18.02,18.02c-11.59,0-18.02-6.44-18.02-18.02V47.63l0.64-0.64h7.72l0.64,0.64v27.04
		c0,6.44,2.57,10.3,9.01,10.3c6.44,0,9.01-3.86,9.01-10.3V47.63l0.64-0.64h7.72l0.64,0.64V74.67z"/>
	<path d="M305.46,74.03h-12.23l-0.64,0.64V91.4l-0.64,0.64h-7.73l-0.64-0.64V47.63l0.64-0.64h21.24c9.01,0,15.45,4.51,15.45,13.52
		C320.91,69.52,314.48,74.03,305.46,74.03z M305.46,54.71h-12.23l-0.64,0.64v10.3l0.64,0.64h12.23c3.86,0,6.44-1.29,6.44-5.79
		C311.9,56,309.33,54.71,305.46,54.71z"/>
</g>
</svg>
