<svg width="3495" height="3495" viewBox="0 0 3495 3495" fill="none" xmlns="http://www.w3.org/2000/svg">
<path d="M1815.87 106.95C2046.75 -95.2143 2408.95 1.83725 2507.82 292.358L2615.73 609.441C2658.81 736.051 2758.23 835.486 2884.84 878.59L3201.94 986.549C3492.39 1085.43 3589.43 1447.54 3387.36 1678.41L3166.53 1930.71C3078.48 2031.32 3042.1 2167.09 3068.05 2298.24L3133.14 2627.16C3192.71 2928.14 2927.62 3193.21 2626.64 3133.62L2298.04 3068.56C2166.84 3042.59 2031.02 3078.99 1930.4 3167.1L1678.41 3387.75C1447.53 3589.91 1085.33 3492.86 986.463 3202.34L878.557 2885.25C835.47 2758.64 736.048 2659.21 609.443 2616.11L292.339 2508.15C1.89138 2409.26 -95.1488 2047.16 106.925 1816.28L327.751 1563.98C415.805 1463.38 452.186 1327.6 426.231 1196.45L361.141 867.54C301.578 566.557 566.668 301.488 867.646 361.076L1196.25 426.132C1327.44 452.106 1463.26 415.704 1563.88 327.599L1815.87 106.95Z" fill="#FF3333"/>
</svg>
