<svg width="3495" height="3496" viewBox="0 0 3495 3496" fill="none" xmlns="http://www.w3.org/2000/svg">
<path d="M1816.18 107.866C2047.06 -94.2986 2409.26 2.75296 2508.13 293.273L2616.04 610.357C2659.13 736.967 2758.55 836.402 2885.15 879.505L3202.26 987.464C3492.7 1086.35 3589.74 1448.45 3387.67 1679.33L3166.84 1931.63C3078.79 2032.23 3042.41 2168.01 3068.36 2299.16L3133.45 2628.07C3193.02 2929.05 2927.93 3194.12 2626.95 3134.54L2298.35 3069.48C2167.16 3043.51 2031.34 3079.91 1930.72 3168.01L1678.73 3388.66C1447.84 3590.83 1085.64 3493.77 986.775 3203.25L878.869 2886.17C835.782 2759.56 736.359 2660.12 609.754 2617.02L292.651 2509.06C2.20308 2410.18 -94.8378 2048.08 107.236 1817.2L328.062 1564.9C416.116 1464.29 452.496 1328.52 426.542 1197.37L361.451 868.455C301.889 567.473 566.979 302.404 867.957 361.991L1196.56 427.048C1327.75 453.022 1463.57 416.619 1564.19 328.515L1816.18 107.866Z" fill="white"/>
</svg>
