<svg width="3496" height="3495" viewBox="0 0 3496 3495" fill="none" xmlns="http://www.w3.org/2000/svg">
<path d="M1816.81 107.167C2047.69 -94.998 2409.89 2.05356 2508.76 292.574L2616.67 609.657C2659.75 736.268 2759.18 835.703 2885.78 878.806L3202.89 986.765C3493.33 1085.65 3590.37 1447.75 3388.3 1678.63L3167.47 1930.93C3079.42 2031.54 3043.04 2167.31 3068.99 2298.46L3134.08 2627.37C3193.65 2928.35 2928.56 3193.42 2627.58 3133.84L2298.98 3068.78C2167.78 3042.81 2031.97 3079.21 1931.35 3167.31L1679.35 3387.96C1448.47 3590.13 1086.27 3493.07 987.404 3202.55L879.498 2885.47C836.411 2758.86 736.989 2659.43 610.384 2616.32L293.28 2508.36C2.83205 2409.48 -94.2081 2047.38 107.866 1816.5L328.692 1564.2C416.746 1463.59 453.126 1327.82 427.172 1196.67L362.081 867.756C302.518 566.774 567.609 301.704 868.587 361.292L1197.19 426.348C1328.38 452.322 1464.2 415.92 1564.82 327.815L1816.81 107.167Z" fill="#FFE5EA"/>
</svg>
