<svg width="3496" height="3496" viewBox="0 0 3496 3496" fill="none" xmlns="http://www.w3.org/2000/svg">
<path d="M1816.73 107.378C2047.61 -94.7865 2409.81 2.26504 2508.68 292.785L2616.58 609.868C2659.67 736.479 2759.09 835.914 2885.7 879.017L3202.8 986.977C3493.25 1085.86 3590.29 1447.96 3388.22 1678.84L3167.39 1931.14C3079.34 2031.75 3042.96 2167.52 3068.91 2298.67L3134 2627.58C3193.56 2928.57 2928.47 3193.64 2627.5 3134.05L2298.9 3068.99C2167.7 3043.02 2031.88 3079.42 1931.26 3167.52L1679.27 3388.17C1448.39 3590.34 1086.19 3493.29 987.321 3202.77L879.415 2885.68C836.328 2759.07 736.906 2659.64 610.301 2616.53L293.197 2508.57C2.74943 2409.69 -94.2912 2047.59 107.783 1816.71L328.609 1564.41C416.663 1463.81 453.043 1328.03 427.088 1196.88L361.998 867.968C302.435 566.985 567.526 301.916 868.503 361.503L1197.1 426.56C1328.3 452.534 1464.12 416.131 1564.74 328.027L1816.73 107.378Z" fill="#1D2526"/>
</svg>
