<svg width="430" height="161" viewBox="0 0 430 161" fill="none" xmlns="http://www.w3.org/2000/svg">
<path d="M18.7 47.3C5.8 47.3 0 40.9 0 32.5L0.6 31.9H8.3L9 32.5C9 37 11.6 39.6 19.3 39.6C25.1 39.6 28.3 37.7 28.3 33.8C28.3 29.3 25.7 28 16.7 26.7C7.7 25.4 0.6 22.2 0.6 13.2C0.6 6.8 5.8 1 18 1C30.2 1 35.4 6.8 35.4 14.5L34.8 15.1H27L26.4 14.5C26.4 10.6 24.5 8.7 17.4 8.7C11.6 8.7 9.7 10.6 9.7 13.2C9.7 17.1 12.3 18.3 21.3 19.6C30.3 20.9 37.4 24.7 37.4 33.8C37.3 40.9 32.2 47.3 18.7 47.3Z" fill="#FF3333"/>
<path d="M75.2996 9.4002H62.3996L61.7996 10.0002V46.1002L61.1996 46.7002H53.4996L52.8996 46.1002V10.0002L52.2996 9.4002H39.1996L38.5996 8.8002V2.3002L39.1996 1.7002H75.2996L75.8996 2.3002V8.7002L75.2996 9.4002Z" fill="#FF3333"/>
<path d="M111.7 46.7002H105.9L105.3 46.1002L102.1 37.7002L100.8 37.1002H84.5996L83.2996 37.7002L80.0996 46.1002L79.4996 46.7002H73.6996L73.0996 46.1002V39.7002L87.8996 2.3002L88.4996 1.7002H96.8996L97.4996 2.3002L112.3 39.6002V46.0002L111.7 46.7002ZM92.9996 13.2002H92.3996L86.5996 28.6002L87.1996 29.2002H98.0996L98.6996 28.6002L92.9996 13.2002Z" fill="#FF3333"/>
<path d="M32.7992 103.5H4.79922L4.19922 102.9V59.1L4.79922 58.5H12.4992L13.0992 59.1V95.2L13.6992 95.8H32.5992L33.1992 96.4V102.8L32.7992 103.5Z" fill="#FF3333"/>
<path d="M76.2992 103.5H70.4992L69.8992 102.9L66.6992 94.4996L65.3992 93.8996H49.1992L47.8992 94.4996L44.6992 102.9L44.0992 103.5H38.2992L37.6992 102.9V96.4996L52.4992 59.1996L53.0992 58.5996H61.4992L62.0992 59.1996L76.8992 96.4996V102.9L76.2992 103.5ZM57.5992 69.9996H56.9992L51.1992 85.3996L51.7992 85.9996H62.6992L63.2992 85.3996L57.5992 69.9996Z" fill="#FF3333"/>
<path d="M103.9 103.5H82.0004L81.4004 102.9V59.1L82.0004 58.5H102.6C109 58.5 115.5 61.7 115.5 70.1C115.5 74.6 113.6 78.5 109.1 79.8V80.4C114.2 81.7 116.8 85.5 116.8 91.3C116.8 100.3 110.4 103.5 103.9 103.5ZM101.3 66.1H91.0004L90.4004 66.7V75.7L91.0004 76.3H101.3C105.2 76.3 106.4 73.7 106.4 71.2C106.5 68.1 105.2 66.1 101.3 66.1ZM101.3 84.2H91.0004L90.4004 84.8V95.1L91.0004 95.7H101.3C105.8 95.7 107.7 93.8 107.7 89.9C107.7 86 105.8 84.2 101.3 84.2Z" fill="#FF3333"/>
<path d="M144.5 28.0002V28.6002L152.9 39.5002V45.9002L152.3 46.5002H148.4L147.1 45.9002L134.2 29.2002L132.9 28.6002H126.5L125.9 29.2002V45.9002L125.3 46.5002H117.6L117 45.9002V2.3002L117.6 1.7002H138.8C147.8 1.7002 154.2 6.2002 154.2 15.2002C154.1 22.2002 149.6 26.8002 144.5 28.0002ZM138.7 9.4002H126.5L125.8 10.0002V20.3002L126.4 20.9002H138.6C142.5 20.9002 145 19.6002 145 15.1002C145.1 10.6002 142.5 9.4002 138.7 9.4002Z" fill="#FF3333"/>
<path d="M194 9.4002H181.1L180.5 10.0002V46.1002L179.9 46.7002H172.2L171.6 46.1002V10.0002L171 9.4002H158L157.4 8.8002V2.3002L158 1.7002H194L194.6 2.3002V8.7002L194 9.4002Z" fill="#FF3333"/>
<path d="M235.4 29.3002C235.4 40.9002 229 47.3002 217.4 47.3002C205.8 47.3002 199.4 40.9002 199.4 29.3002V2.3002L200 1.7002H207.7L208.3 2.3002V29.3002C208.3 35.7002 210.9 39.6002 217.3 39.6002C223.7 39.6002 226.3 35.7002 226.3 29.3002V2.3002L226.9 1.7002H234.6L235.2 2.3002L235.4 29.3002Z" fill="#FF3333"/>
<path d="M263.3 28.7002H251.1L250.5 29.3002V46.0002L249.9 46.6002H242.2L241.6 46.0002V2.3002L242.2 1.7002H263.4C272.4 1.7002 278.9 6.2002 278.9 15.2002C278.8 24.2002 272.3 28.7002 263.3 28.7002ZM263.3 9.4002H251.1L250.5 10.0002V20.3002L251.1 20.9002H263.3C267.2 20.9002 269.7 19.6002 269.7 15.1002C269.8 10.6002 267.2 9.4002 263.3 9.4002Z" fill="#FF3333"/>
<path d="M33.8276 122.667L33.1929 123.306H13.5194L12.8848 123.944V133.528L13.5194 134.167H31.9237L32.5583 134.806V141.194L31.9237 141.833H13.5194L12.8848 142.472V159.722L12.2502 160.361H4.63463L4 159.722V116.278L4.63463 115.639H33.1929L33.8276 116.278V122.667Z" fill="#FF3333"/>
<path d="M49.0487 159.722L48.4141 160.361H40.7986L40.1639 159.722V116.278L40.7986 115.639H48.4141L49.0487 116.278V159.722Z" fill="#FF3333"/>
<path d="M57.9212 116.278L58.5558 115.639H67.4406L68.7099 116.278L85.8448 145.667H86.4795V116.278L87.1141 115.639H94.7297L95.3643 116.278V159.722L94.7297 160.361H85.8448L84.5756 159.722L67.4406 130.333H66.806V159.722L66.1713 160.361H58.5558L57.9212 159.722V116.278Z" fill="#FF3333"/>
<path d="M137.25 122.667L136.615 123.306H123.923L123.288 123.944V159.722L122.653 160.361H115.038L114.403 159.722V123.944L113.769 123.306H101.076L100.441 122.667V116.278L101.076 115.639H136.615L137.25 116.278V122.667Z" fill="#FF3333"/>
<path d="M173.431 159.722L172.796 160.361H142.969L142.334 159.722V116.278L142.969 115.639H172.796L173.431 116.278V122.667L172.796 123.306H151.854L151.219 123.944V132.889L151.854 133.528H171.527L172.162 134.167V140.556L171.527 141.194H151.854L151.219 141.833V152.056L151.854 152.694H172.796L173.431 153.333V159.722Z" fill="#FF3333"/>
<path d="M200.078 153.333C205.155 153.333 208.328 151.417 209.598 146.944L210.232 146.306H217.848L218.482 146.944C217.213 155.889 210.232 161 200.078 161C186.116 161 178.501 151.417 178.501 138C178.501 124.583 186.116 115 200.078 115C210.232 115 217.213 120.111 218.482 128.417L217.848 129.056H210.232L209.598 128.417C208.328 124.583 205.155 122.667 200.078 122.667C191.193 122.667 187.385 129.056 187.385 138C187.385 146.944 191.193 153.333 200.078 153.333Z" fill="#FF3333"/>
<path d="M261 159.722L260.365 160.361H252.75L252.115 159.722V141.833L251.481 141.194H234.346L233.711 141.833V159.722L233.076 160.361H225.461L224.826 159.722V116.278L225.461 115.639H233.076L233.711 116.278V132.889L234.346 133.528H251.481L252.115 132.889V116.278L252.75 115.639H260.365L261 116.278V159.722Z" fill="#FF3333"/>
</svg>
