<svg width="2100" height="1181" viewBox="0 0 2100 1181" fill="none" xmlns="http://www.w3.org/2000/svg">
<path fill-rule="evenodd" clip-rule="evenodd" d="M0 1181L2100 1181L2100 0L0.000103246 -0.000183588L0 1181ZM1070 1052C1058.95 1052 1050 1060.95 1050 1072L1050 1111C1050 1122.05 1041.05 1131 1030 1131L319 1131C307.954 1131 299 1122.05 299 1111L299 771C299 759.954 290.045 751 279 751L69.9994 751C58.9538 751 49.9996 742.046 49.9996 731L49.9996 449C49.9996 437.954 58.9539 429 69.9996 429L109 429C120.045 429 129 420.046 129 409C129 397.954 120.045 389 109 389L69.9996 389C58.9539 389 49.9996 380.046 49.9996 369L49.9996 150C49.9996 138.954 58.9539 130 69.9996 130L129 130C140.046 130 149 121.045 149 110L149 69.9998C149 58.9542 157.954 49.9998 169 49.9998L301 49.9998C312.046 49.9998 321 58.9542 321 69.9998L321 224.232C321 238.171 334.9 247.835 347.966 242.98L863.938 51.2525C866.167 50.4241 868.526 50 870.904 50L1700 50.0002C1711.05 50.0002 1720 58.9546 1720 70.0002L1720 112C1720 123.046 1728.95 132 1740 132L2030 132C2041.05 132 2050 140.954 2050 152L2050 891C2050 902.046 2041.05 911 2030 911L1990 911C1978.95 911 1970 919.954 1970 931C1970 942.046 1978.95 951 1990 951L2030 951C2041.05 951 2050 959.954 2050 971L2050 1111C2050 1122.05 2041.05 1131 2030 1131L1890 1131C1878.95 1131 1870 1122.05 1870 1111L1870 1071C1870 1059.95 1861.05 1051 1850 1051C1838.95 1051 1830 1059.95 1830 1071L1830 1111C1830 1122.05 1821.05 1131 1810 1131L1220 1131C1208.95 1131 1200 1122.05 1200 1111L1200 1072C1200 1060.95 1191.05 1052 1180 1052L1070 1052Z" fill="#FF3333"/>
</svg>
