<svg width="2100" height="1181" viewBox="0 0 2100 1181" fill="none" xmlns="http://www.w3.org/2000/svg">
<path fill-rule="evenodd" clip-rule="evenodd" d="M2100 0H0V1181H2100V0ZM1811 130C1822.05 130 1831 121.046 1831 110V70C1831 58.9543 1839.95 50 1851 50H1931C1942.05 50 1951 58.9543 1951 70V110C1951 121.046 1959.95 130 1971 130H2030C2041.05 130 2050 138.954 2050 150V401C2050 412.046 2041.05 421 2030 421H1991C1979.95 421 1971 429.954 1971 441C1971 452.046 1979.95 461 1991 461H2030C2041.05 461 2050 469.954 2050 481V731.5C2050 742.546 2041.05 751.5 2030 751.5H1986.34C1982.53 751.5 1978.79 752.589 1975.58 754.639L1520.24 1045.1C1514.49 1048.78 1511 1055.13 1511 1061.96V1111C1511 1122.05 1502.05 1131 1491 1131H560C548.955 1131 540 1122.05 540 1111V1071C540 1059.95 531.046 1051 520 1051C508.955 1051 500 1059.95 500 1071V1111C500 1122.05 491.046 1131 480 1131L400 1131C388.955 1131 380 1122.05 380 1111V750C380 738.954 371.046 730 360 730H70.0002C58.9546 730 50.0002 721.046 50.0002 710V630C50.0002 618.954 58.9545 610 70.0002 610H110C121.046 610 130 601.046 130 590C130 578.954 121.046 570 110 570H70.0002C58.9545 570 50.0002 561.046 50.0002 550V350C50.0002 338.954 58.9545 330 70.0002 330H110C121.046 330 130 321.046 130 310C130 298.954 121.046 290 110 290H70.0002C58.9545 290 50.0002 281.046 50.0002 270V190C50.0002 178.954 58.9546 170 70.0002 170H290C301.046 170 310 161.046 310 150V70C310 58.9543 318.955 50 330 50L1771 50C1782.05 50 1791 58.9543 1791 70V110C1791 121.046 1799.95 130 1811 130Z" fill="#FF3333"/>
</svg>
