<svg width="2100" height="1181" viewBox="0 0 2100 1181" fill="none" xmlns="http://www.w3.org/2000/svg">
<path fill-rule="evenodd" clip-rule="evenodd" d="M2100 0H0V1181H2100V0ZM2030 50.0003C2041.05 50.0003 2050 58.9546 2050 70.0003V551C2050 562.046 2041.05 571 2030 571H1591C1579.95 571 1571 562.046 1571 551C1571 539.954 1562.05 531 1551 531H1400C1388.95 531 1380 522.046 1380 511V70.0001C1380 58.9544 1388.95 50.0001 1400 50.0001L2030 50.0003ZM2030 611C2041.05 611 2050 619.954 2050 631V1111C2050 1122.05 2041.05 1131 2030 1131H1400C1388.95 1131 1380 1122.05 1380 1111V671C1380 659.954 1388.95 651 1400 651H1551C1562.05 651 1571 642.046 1571 631C1571 619.954 1579.95 611 1591 611H2030ZM1340 70.0001C1340 58.9544 1331.05 50.0001 1320 50.0001L690 50.0001C678.954 50.0001 670 58.9544 670 70.0001L670 551C670 562.046 678.954 571 690 571H1129C1140.05 571 1149 562.046 1149 551C1149 539.954 1157.95 531 1169 531H1320C1331.05 531 1340 522.046 1340 511V70.0001ZM690 611C678.954 611 670 619.954 670 631V1111C670 1122.05 678.954 1131 690 1131L1320 1131C1331.05 1131 1340 1122.05 1340 1111V671C1340 659.954 1331.05 651 1320 651H1169C1157.95 651 1149 642.046 1149 631C1149 619.954 1140.05 611 1129 611H690Z" fill="#FF3333"/>
</svg>
