<svg width="2100" height="1181" viewBox="0 0 2100 1181" fill="none" xmlns="http://www.w3.org/2000/svg">
<path fill-rule="evenodd" clip-rule="evenodd" d="M2100 0H0V1181H2100V0ZM1691 50C1679.95 50 1671 58.9543 1671 70V110C1671 121.046 1662.04 130 1651 130C1639.95 130 1631 121.046 1631 110V70C1631 58.9543 1622.04 50 1611 50H490C478.954 50 470 58.9543 470 70V110C470 121.046 461.046 130 450 130C438.955 130 430 121.046 430 110V70C430 58.9543 421.046 50 410 50H170C158.955 50 150 58.9543 150 70V110C150 121.046 141.046 130 130 130H70.0002C58.9545 130 50.0002 138.954 50.0002 150V551C50.0002 562.046 58.9545 571 70.0002 571H110C121.046 571 130 579.954 130 591C130 602.046 121.046 611 110 611H70.0002C58.9545 611 50.0002 619.954 50.0002 631V1031C50.0002 1042.05 58.9545 1051 70.0002 1051H130C141.046 1051 150 1059.95 150 1071V1111C150 1122.05 158.955 1131 170 1131H410C421.046 1131 430 1122.05 430 1111V1071C430 1059.95 438.955 1051 450 1051C461.046 1051 470 1059.95 470 1071V1111C470 1122.05 478.955 1131 490 1131H1611C1622.05 1131 1631 1122.05 1631 1111V1071C1631 1059.95 1639.95 1051 1651 1051C1662.05 1051 1671 1059.95 1671 1071V1111C1671 1122.05 1679.95 1131 1691 1131H1931C1942.05 1131 1951 1122.05 1951 1111V1071C1951 1059.95 1959.95 1051 1971 1051H2030C2041.05 1051 2050 1042.05 2050 1031V631C2050 619.954 2041.05 611 2030 611H1991C1979.95 611 1971 602.046 1971 591C1971 579.954 1979.95 571 1991 571H2030C2041.05 571 2050 562.046 2050 551V150C2050 138.954 2041.05 130 2030 130H1971C1959.95 130 1951 121.046 1951 110V70C1951 58.9543 1942.05 50 1931 50H1691Z" fill="#1D2526"/>
</svg>
