<svg width="2100" height="1181" viewBox="0 0 2100 1181" fill="none" xmlns="http://www.w3.org/2000/svg">
<path fill-rule="evenodd" clip-rule="evenodd" d="M2100 0H0V1181H2100V0ZM1860 50C1848.95 50 1840 58.9543 1840 70V110C1840 121.046 1831.04 130 1820 130C1808.95 130 1800 121.046 1800 110V70C1800 58.9543 1791.04 50 1780 50H320C308.954 50 300 58.9543 300 70V110C300 121.046 291.046 130 280 130C268.955 130 260 121.046 260 110V70C260 58.9543 251.046 50 240 50H70.0004C58.9547 50 50.0004 58.9543 50.0004 70L50.0003 240C50.0003 251.046 58.9546 260 70.0003 260H110C121.046 260 130 268.954 130 280C130 291.046 121.046 300 110 300H70.0002C58.9546 300 50.0002 308.954 50.0002 320V861C50.0002 872.046 58.9546 881 70.0002 881H110C121.046 881 130 889.954 130 901C130 912.046 121.046 921 110 921H70.0002C58.9546 921 50.0002 929.954 50.0002 941L50.0002 1111C50.0002 1122.05 58.9545 1131 70.0002 1131L240 1131C251.046 1131 260 1122.05 260 1111V1071C260 1059.95 268.955 1051 280 1051C291.046 1051 300 1059.95 300 1071V1111C300 1122.05 308.955 1131 320 1131H1780C1791.05 1131 1800 1122.05 1800 1111V1071C1800 1059.95 1808.95 1051 1820 1051C1831.05 1051 1840 1059.95 1840 1071V1111C1840 1122.05 1848.95 1131 1860 1131H2030C2041.05 1131 2050 1122.05 2050 1111V941C2050 929.954 2041.05 921 2030 921H1991C1979.95 921 1971 912.046 1971 901C1971 889.954 1979.95 881 1991 881H2030C2041.05 881 2050 872.046 2050 861V320C2050 308.954 2041.05 300 2030 300H1991C1979.95 300 1971 291.046 1971 280C1971 268.954 1979.95 260 1991 260H2030C2041.05 260 2050 251.046 2050 240V70.0003C2050 58.9547 2041.05 50.0003 2030 50.0003L1860 50Z" fill="#1D2526"/>
</svg>
