<svg width="2100" height="1181" viewBox="0 0 2100 1181" fill="none" xmlns="http://www.w3.org/2000/svg">
<path fill-rule="evenodd" clip-rule="evenodd" d="M2100 0H0V1181H2100V0ZM2050 1001C2050 1012.05 2041.05 1021 2030 1021H1990C1978.95 1021 1970 1029.95 1970 1041V1111C1970 1122.05 1961.05 1131 1950 1131H1860C1848.95 1131 1840 1122.05 1840 1111V1071C1840 1059.95 1831.05 1051 1820 1051C1808.95 1051 1800 1059.95 1800 1071V1111C1800 1122.05 1791.05 1131 1780 1131H1320C1308.95 1131 1300 1122.05 1300 1111V1071C1300 1059.95 1291.05 1051 1280 1051C1268.95 1051 1260 1059.95 1260 1071V1111C1260 1122.05 1251.05 1131 1240 1131H1150C1138.95 1131 1130 1122.05 1130 1111V1041C1130 1029.95 1121.05 1021 1110 1021H1070C1058.95 1021 1050 1012.05 1050 1001V941C1050 929.954 1058.95 921 1070 921H1110C1121.05 921 1130 912.046 1130 901C1130 889.954 1121.05 881 1110 881H1070C1058.95 881 1050 872.046 1050 861L1050 320C1050 308.954 1058.95 300 1070 300H1110C1121.05 300 1130 291.046 1130 280C1130 268.954 1121.05 260 1110 260H1070C1058.95 260 1050 251.046 1050 240V180C1050 168.954 1058.95 160 1070 160H1110C1121.05 160 1130 151.046 1130 140V70C1130 58.9543 1138.95 50 1150 50H1240C1251.05 50 1260 58.9543 1260 70V110C1260 121.046 1268.95 130 1280 130C1291.05 130 1300 121.046 1300 110V70C1300 58.9543 1308.95 50 1320 50H1780C1791.05 50 1800 58.9543 1800 70V110C1800 121.046 1808.95 130 1820 130C1831.05 130 1840 121.046 1840 110V70C1840 58.9543 1848.95 50 1860 50L1950 50.0001C1961.05 50.0002 1970 58.9545 1970 70.0001V140C1970 151.046 1978.95 160 1990 160H2030C2041.05 160 2050 168.954 2050 180V240C2050 251.046 2041.05 260 2030 260H1990C1978.95 260 1970 268.954 1970 280C1970 291.046 1978.95 300 1990 300H2030C2041.05 300 2050 308.954 2050 320V861C2050 872.046 2041.05 881 2030 881H1990C1978.95 881 1970 889.954 1970 901C1970 912.046 1978.95 921 1990 921H2030C2041.05 921 2050 929.954 2050 941V1001Z" fill="#FF3333"/>
</svg>
