<svg width="2100" height="1181" viewBox="0 0 2100 1181" fill="none" xmlns="http://www.w3.org/2000/svg">
<path fill-rule="evenodd" clip-rule="evenodd" d="M2100 0H0V1181H2100V0ZM1070 50C1058.95 50 1050 58.9543 1050 70L1050 240C1050 251.046 1058.95 260 1070 260H1110C1121.05 260 1130 268.954 1130 280C1130 291.046 1121.05 300 1110 300H1070C1058.95 300 1050 308.954 1050 320V861C1050 872.046 1058.95 881 1070 881H1110C1121.05 881 1130 889.954 1130 901C1130 912.046 1121.05 921 1110 921H1070C1058.95 921 1050 929.954 1050 941V1111C1050 1122.05 1058.95 1131 1070 1131L1671 1131C1682.05 1131 1691 1122.05 1691 1111V1071C1691 1059.95 1699.95 1051 1711 1051C1722.05 1051 1731 1059.95 1731 1071V1111C1731 1122.05 1739.95 1131 1751 1131H1851C1862.05 1131 1871 1122.05 1871 1111V912C1871 900.954 1879.95 892 1891 892H2030C2041.05 892 2050 883.046 2050 872L2050 70.0002C2050 58.9545 2041.05 50.0002 2030 50.0002L1790 50C1778.95 50 1770 58.9543 1770 70V110C1770 121.046 1761.05 130 1750 130C1738.95 130 1730 121.046 1730 110V70C1730 58.9543 1721.05 50 1710 50H1320C1308.95 50 1300 58.9543 1300 70V110C1300 121.046 1291.05 130 1280 130C1268.95 130 1260 121.046 1260 110V70C1260 58.9543 1251.05 50 1240 50H1070Z" fill="#FF3333"/>
</svg>
