<svg width="2100" height="1181" viewBox="0 0 2100 1181" fill="none" xmlns="http://www.w3.org/2000/svg">
<path fill-rule="evenodd" clip-rule="evenodd" d="M2100 0H0V1181H2100V0ZM1780 50C1791.05 50 1800 58.9543 1800 70V110C1800 121.046 1808.95 130 1820 130C1831.05 130 1840 121.046 1840 110V70C1840 58.9543 1848.95 50 1860 50L2030 50.0002C2041.05 50.0002 2050 58.9545 2050 70.0002V240C2050 251.046 2041.05 260 2030 260H1991C1979.95 260 1971 268.954 1971 280C1971 291.046 1979.95 300 1991 300H2030C2041.05 300 2050 308.954 2050 320V1111C2050 1122.05 2041.05 1131 2030 1131H1860C1848.95 1131 1840 1122.05 1840 1111V1071C1840 1059.95 1831.05 1051 1820 1051C1808.95 1051 1800 1059.95 1800 1071V1111C1800 1122.05 1791.05 1131 1780 1131L1070 1131C1058.95 1131 1050 1122.05 1050 1111V630C1050 618.954 1058.95 610 1070 610H1110C1121.05 610 1130 601.046 1130 590C1130 578.954 1121.05 570 1110 570H1070C1058.95 570 1050 561.046 1050 550L1050 70C1050 58.9543 1058.95 50 1070 50H1240C1251.05 50 1260 58.9543 1260 70V110C1260 121.046 1268.95 130 1280 130C1291.05 130 1300 121.046 1300 110V70C1300 58.9543 1308.95 50 1320 50H1780Z" fill="#1D2526"/>
</svg>
