<svg width="1012" height="1012" viewBox="0 0 1012 1012" fill="none" xmlns="http://www.w3.org/2000/svg">
<path fill-rule="evenodd" clip-rule="evenodd" d="M962 217C950.954 217 942 208.046 942 197V20.0001C942 8.95439 933.046 8.90341e-05 922 7.59296e-05L878 2.3728e-05C866.954 1.06234e-05 858 8.95432 858 20V57.5C858 64.4036 852.404 70 845.5 70V70C838.596 70 833 64.4036 833 57.5V20C833 8.95431 824.046 0 813 0H175C163.954 0 155 8.9543 155 20V57.5C155 64.4036 149.404 70 142.5 70V70C135.597 70 130 64.4036 130 57.5V20C130 8.95431 121.046 0 110 0H70C58.9543 0 50 8.9543 50 20V50C50 61.0457 41.0457 70 30 70H20C8.95431 70 0 78.9543 0 90V184C0 195.046 8.9543 204 20 204H117.5C124.404 204 130 209.596 130 216.5V216.5C130 223.404 124.404 229 117.5 229H20C8.95431 229 0 237.954 0 249V763C0 774.046 8.9543 783 20 783H117.5C124.404 783 130 788.596 130 795.5V795.5C130 802.404 124.404 808 117.5 808H20C8.95431 808 0 816.954 0 828V922C0 933.046 8.9543 942 20 942H30C41.0457 942 50 950.954 50 962V992C50 1003.05 58.9543 1012 70 1012H110C121.046 1012 130 1003.05 130 992V954.5C130 947.596 135.597 942 142.5 942V942C149.404 942 155 947.596 155 954.5V992C155 1003.05 163.954 1012 175 1012H813C824.046 1012 833 1003.05 833 992V954.5C833 947.596 838.596 942 845.5 942V942C852.404 942 858 947.596 858 954.5V992C858 1003.05 866.954 1012 878 1012H922C933.046 1012 942 1003.05 942 992V815C942 803.954 950.954 795 962 795H992C1003.05 795 1012 786.046 1012 775V539C1012 527.954 1003.05 519 992 519H954.5C947.596 519 942 513.404 942 506.5V506.5C942 499.596 947.596 494 954.5 494H992C1003.05 494 1012 485.046 1012 474V237C1012 225.954 1003.05 217 992 217H962Z" fill="#FF3333"/>
</svg>
