<svg width="900" height="1012" viewBox="0 0 900 1012" fill="none" xmlns="http://www.w3.org/2000/svg">
<path fill-rule="evenodd" clip-rule="evenodd" d="M590 20C590 8.9543 581.046 0 570 0H205C193.954 0 185 8.9543 185 20V57.5C185 64.4036 179.403 70 172.5 70V70C165.596 70 160 64.4036 160 57.5V20C160 8.95431 151.046 0 140 0H20.0002C8.95447 0 0.000166517 8.95431 0.000164646 20L0.000107901 355C0.00010603 366.046 8.9544 375 20.0001 375H57.4999C64.4035 375 69.9999 380.596 69.9999 387.5V387.5C69.9999 394.404 64.4035 400 57.4999 400H20.0001C8.9544 400 9.87615e-05 408.954 9.68905e-05 420L2.11736e-05 867C1.93026e-05 878.046 8.95432 887 20 887H57.4999C64.4035 887 69.9999 892.596 69.9999 899.5V899.5C69.9999 906.404 64.4035 912 57.4999 912H20C8.95432 912 1.20343e-05 920.954 1.01633e-05 932L0 992C-1.87102e-06 1003.05 8.95429 1012 20 1012L566 1012C577.046 1012 586 1003.05 586 992V954.5C586 947.596 591.596 942 598.5 942V942C605.403 942 611 947.596 611 954.5V992C611 1003.05 619.954 1012 631 1012H721C732.046 1012 741 1003.05 741 992V815C741 803.954 749.954 795 761 795H880C891.046 795 900 786.046 900 775L900 20.0001C900 8.95446 891.046 0.000151293 880 0.000137487L790 2.49977e-05C778.954 1.11918e-05 770 8.95432 770 20V57.5C770 64.4036 764.403 70 757.5 70V70C750.596 70 745 64.4036 745 57.5V20C745 8.95431 736.046 0 725 0H635C623.954 0 615 8.95431 615 20V57.5C615 64.4036 609.403 70 602.5 70V70C595.596 70 590 64.4036 590 57.5V20Z" fill="#1D2526"/>
</svg>
