<svg width="1012" height="1012" viewBox="0 0 1012 1012" fill="none" xmlns="http://www.w3.org/2000/svg">
<path fill-rule="evenodd" clip-rule="evenodd" d="M727 20C727 8.95431 735.954 0 747 0H837C848.046 0 857 8.9543 857 20V57.5C857 64.4036 862.597 70 869.5 70V70C876.404 70 882 64.4036 882 57.5V20C882 8.95432 890.954 1.25846e-05 902 2.81086e-05L992 0.000154597C1003.05 0.000170121 1012 8.95453 1012 20.0002L1012 992C1012 1003.05 1003.05 1012 992 1012L20 1012C8.9543 1012 -2.44873e-06 1003.05 0 992L0.000100426 539C0.000102875 527.954 8.95441 519 20.0001 519H57.5001C64.4037 519 70.0001 513.404 70.0001 506.5V506.5C70.0001 499.596 64.4037 494 57.5001 494H20.0001C8.95441 494 0.000107059 485.046 0.000108424 474L0.000164517 20C0.000165882 8.9543 8.95446 0 20.0002 0H110C121.046 0 130 8.9543 130 20V57.5C130 64.4036 135.597 70 142.5 70V70C149.404 70 155 64.4036 155 57.5V20C155 8.95431 163.954 0 175 0H682C693.046 0 702 8.9543 702 20V57.5C702 64.4036 707.597 70 714.5 70V70C721.404 70 727 64.4036 727 57.5V20Z" fill="#FF3333"/>
</svg>
