<svg width="2100" height="1181" viewBox="0 0 2100 1181" fill="none" xmlns="http://www.w3.org/2000/svg">
<path fill-rule="evenodd" clip-rule="evenodd" d="M2100 0H0V1181H2100V0ZM1050 350C1050 361.046 1058.95 370 1070 370H1189C1200.05 370 1209 378.954 1209 390C1209 401.046 1200.05 410 1189 410H1070C1058.95 410 1050 418.954 1050 430L1050 951C1050 962.046 1058.95 971 1070 971H1209C1220.05 971 1229 979.954 1229 991V1111C1229 1122.05 1237.95 1131 1249 1131H1372C1383.05 1131 1392 1122.05 1392 1111V1071C1392 1059.95 1400.95 1051 1412 1051C1423.05 1051 1432 1059.95 1432 1071V1111C1432 1122.05 1440.95 1131 1452 1131H1674.5C1685.55 1131 1694.5 1122.05 1694.5 1111V1071C1694.5 1059.95 1703.45 1051 1714.5 1051H1758.41C1762.38 1051 1766.26 1049.82 1769.55 1047.61L2041.14 865.454C2046.68 861.74 2050 855.512 2050 848.844V430C2050 418.954 2041.05 410 2030 410H1990C1978.95 410 1970 401.046 1970 390C1970 378.954 1978.95 370 1990 370H2030C2041.05 370 2050 361.046 2050 350V190C2050 178.954 2041.05 170 2030 170H1990C1978.95 170 1970 161.046 1970 150C1970 138.954 1978.95 130 1990 130H2030C2041.05 130 2050 121.046 2050 110V70.0002C2050 58.9545 2041.05 50.0002 2030 50.0002L1452 50C1440.95 50 1432 58.9543 1432 70V110C1432 121.046 1423.05 130 1412 130C1400.95 130 1392 121.046 1392 110V70C1392 58.9543 1383.05 50 1372 50L1229 50C1217.95 50 1209 58.9543 1209 70V110C1209 121.046 1200.05 130 1189 130H1070C1058.95 130 1050 138.954 1050 150V350Z" fill="#FF3333"/>
</svg>
