<svg width="137" height="137" viewBox="0 0 137 137" fill="none" xmlns="http://www.w3.org/2000/svg">
<rect width="137" height="137" rx="5" fill="#FF3333"/>
<g clip-path="url(#clip0_4733_462)">
<path d="M40.6629 65.3331C31.5163 65.3331 27.4004 60.6989 27.4004 54.6744L27.8577 54.211H33.3456L33.803 54.6744C33.803 57.9184 35.6323 59.7721 41.1202 59.7721C45.2362 59.7721 47.5228 58.3818 47.5228 55.6012C47.5228 52.3573 45.6935 51.4304 39.2909 50.5036C32.8883 49.5767 27.8577 47.2596 27.8577 40.7716C27.8577 36.1374 31.5163 31.9666 40.2056 31.9666C48.8948 31.9666 52.5534 36.1374 52.5534 41.6985L52.0961 42.1619H46.6081L46.1508 41.6985C46.1508 38.9179 44.7788 37.5277 39.7482 37.5277C35.6323 37.5277 34.2603 38.9179 34.2603 40.7716C34.2603 43.5522 36.0896 44.479 42.4922 45.4059C48.8948 46.3327 53.9254 49.1133 53.9254 55.6012C53.9254 60.6989 50.2668 65.3331 40.6629 65.3331Z" fill="white"/>
<path d="M52.3293 105.033H33.1917L32.7344 104.57V73.0569L33.1917 72.5935H38.6796L39.137 73.0569V99.0087L39.5943 99.4722H52.3293L52.7867 99.9356V104.57L52.3293 105.033Z" fill="white"/>
</g>
<defs>
<clipPath id="clip0_4733_462">
<rect width="27.4" height="73.0667" fill="white" transform="translate(27.4004 31.9666)"/>
</clipPath>
</defs>
</svg>
